<svg id="Layer_1" data-name="Layer 1" xmlns="http://www.w3.org/2000/svg" viewBox="0 0 211.23 53.62"><defs><style>.cls-1,.cls-2{fill:#01aed0;}.cls-2{font-size:43px;font-family:Lato-Light, Lato;font-weight:300;}</style></defs><path class="cls-1" d="M14.15,5.4l1.38,1.12A33.7,33.7,0,0,0,19.25,9a53.35,53.35,0,0,0,5.53-9l-3.6,0h-4.8a1.91,1.91,0,0,0-.53.05,1.67,1.67,0,0,0-.65.42c-.2.2-.4.4-.6.63L12.05,3.65l.75.62C13.25,4.67,13.7,5,14.15,5.4Z"/><path class="cls-1" d="M7.88,11.82a20.27,20.27,0,0,1,2,2.95,25,25,0,0,1,1.7,3.68c.9-1.05,1.8-2.13,2.68-3.2,1.2-1.48,2.42-2.95,3.57-4.45-1-.6-2-1.25-3-2C13.73,8,12.63,7.07,11.5,6.15c-.37-.3-.75-.6-1.1-.9l-.07.07-2.8,2.8L5.88,9.77A14.82,14.82,0,0,1,7.88,11.82Z"/><path class="cls-1" d="M22.78,10.75a37.66,37.66,0,0,0,9,2.45c.37.05.75.1,1.15.12A38.38,38.38,0,0,1,31.53,5.8,47.44,47.44,0,0,1,31.15.1L27.8.08h-.55c-.22.5-.42,1-.67,1.45a55.08,55.08,0,0,1-5.3,8.52C21.78,10.3,22.28,10.52,22.78,10.75Z"/><path class="cls-1" d="M23.88,28.15q3.18-3.87,6.7-7.42c1.22-1.25,2.47-2.46,3.77-3.6-.22-.48-.42-1-.62-1.48a39.08,39.08,0,0,1-6.13-1,37.8,37.8,0,0,1-7.75-2.8c-1.57,2-3.2,4-4.82,6C14.18,19,13.28,20,12.38,21c0,.15.07.27.1.42.17.73.3,1.45.4,2.18a35.55,35.55,0,0,1,6.77,5.57c.63.65,1.2,1.35,1.78,2.05C22.23,30.17,23.05,29.15,23.88,28.15Z"/><path class="cls-1" d="M33.7,5.15l.22,2.17a37,37,0,0,0,1.43,6.18c1.07.05,2.15.07,3.22.05a80.18,80.18,0,0,1,7.08-5A1.87,1.87,0,0,1,46,8.4L43.85,6.27c-.43-.42-.85-.87-1.3-1.3L41.6,4l-1.3-1.3-1.08-1.1-.45-.47-.1-.1L38.55.9,38.42.75l-.1-.1a2.23,2.23,0,0,0-.4-.35A1.9,1.9,0,0,0,37,.12h-1c-.58,0-1.13,0-1.7,0h-1c0,1,0,1.92.1,2.87C33.55,3.72,33.63,4.42,33.7,5.15Z"/><path class="cls-1" d="M45.35,13.05c1.53-.2,3-.48,4.55-.78l-.4-.37-.12-.1-.13-.1-1.62-1.63c-1.7,1-3.38,2.13-5,3.3C43.53,13.27,44.42,13.17,45.35,13.05Z"/><path class="cls-1" d="M39.4,15.8c-.78.62-1.52,1.25-2.25,1.87a28.06,28.06,0,0,0,2.4,3.78A33.58,33.58,0,0,0,45.3,27c.5-.45,1-.88,1.53-1.3A53.66,53.66,0,0,1,53.48,21V16.37a1.52,1.52,0,0,0-.15-.7,1.45,1.45,0,0,0-.31-.35L53,15.27l-.62-.62a6.17,6.17,0,0,1-.5-.53h0c-2.1.45-4.2.83-6.33,1.13A56.07,56.07,0,0,1,39.4,15.8Z"/><path class="cls-1" d="M53.45,23.7c-1.37.85-2.7,1.8-4,2.78-.8.62-1.57,1.27-2.35,1.92a46.76,46.76,0,0,0,6.35,3.92V23.7Z"/><path class="cls-1" d="M29.8,35.32a48.76,48.76,0,0,1,6.53,2.23,52.83,52.83,0,0,1,4.22-5.73c1-1.12,2-2.22,3.08-3.27-1.05-.85-2.1-1.73-3.08-2.65a26.89,26.89,0,0,1-3-3.43,28.18,28.18,0,0,1-2.1-3.25A106.9,106.9,0,0,0,23,32.8l-.23.3c.23.32.43.65.65,1A50.9,50.9,0,0,1,29.8,35.32Z"/><path class="cls-1" d="M29.2,37.5c-1.45-.38-2.9-.7-4.37-1a29.24,29.24,0,0,1,2.59,8.2,20.25,20.25,0,0,1,.28,2.82,17.5,17.5,0,0,1-.08,2.4c-.09,1.23-.27,2.43-.45,3.65H30c.08-.3.15-.6.2-.9.15-.7.28-1.37.45-2.07s.38-1.48.6-2.2a44.28,44.28,0,0,1,3.9-9A43.77,43.77,0,0,0,29.2,37.5Z"/><path class="cls-1" d="M45.42,30c-.25.22-.47.47-.72.7a42.76,42.76,0,0,0-4,4.53c-.83,1.07-1.6,2.17-2.33,3.3.18.09.38.17.55.27a42.13,42.13,0,0,1,8.18,5.3l.07.08.72-.73,1-1,2-2,.75-.75.75-.75.38-.37.37-.38a1.16,1.16,0,0,0,.33-.8V34.83c-.58-.28-1.15-.58-1.73-.88A46.8,46.8,0,0,1,45.42,30Z"/><path class="cls-1" d="M37.23,40.42a43.12,43.12,0,0,0-2.4,4.81,41.52,41.52,0,0,0-2.33,7.5c0,.3-.12.57-.17.87.92,0,1.84,0,2.77,0h2.17a1.33,1.33,0,0,0,.43,0,1.37,1.37,0,0,0,.62-.42c.28-.28.55-.53.83-.8,1-1,1.93-1.93,2.87-2.9,1.2-1.23,2.43-2.45,3.63-3.65-.3-.25-.6-.5-.93-.75A45.65,45.65,0,0,0,37.23,40.42Z"/><path class="cls-1" d="M14.25,27.23c-.37-.28-.72-.55-1.1-.8,0,.59,0,1.17-.05,1.77a26.56,26.56,0,0,1-.7,4c-.1.42-.22.82-.35,1.25.8,0,1.58,0,2.38,0,1.72,0,3.47.07,5.2.22l.42-.57c-.05,0-.07-.1-.12-.15A31.6,31.6,0,0,0,14.25,27.23Z"/><path class="cls-1" d="M17.7,36.3c.13-.18.25-.38.38-.55-1.23-.08-2.48-.1-3.7-.1-1,0-2.05,0-3.08.08-.15.4-.3.77-.45,1.17a53.28,53.28,0,0,1-3.93,7.85l1,1,.24.25c.78.78,1.55,1.55,2.3,2.32a.14.14,0,0,0,.05-.1c.65-1.07,1.23-2.19,1.85-3.3Q14.81,40.45,17.7,36.3Z"/><path class="cls-1" d="M23.43,38.85a27.51,27.51,0,0,0-1.35-2.72L20.68,36c-2.08,2.9-4,5.9-5.8,9-.6,1-1.15,2.1-1.75,3.15-.35.63-.7,1.22-1.08,1.82.25.25.5.5.73.75.75.78,1.52,1.53,2.27,2.31l.28.27a1.15,1.15,0,0,0,.85.35H24.9c.08-.53.15-1,.22-1.55.13-1,.26-2,.3-3.1a20.06,20.06,0,0,0-.12-3.2A27.9,27.9,0,0,0,23.43,38.85Z"/><path class="cls-1" d="M25.18,51.82c0,.08,0,.16,0,.23v.07C25.15,52,25.18,51.92,25.18,51.82Z"/><path class="cls-1" d="M.1,17.57v.86c.73.15,1.43.3,2.13.5A40.73,40.73,0,0,1,9,21.4c.33-.33.63-.67,1-1-.22-.75-.5-1.5-.8-2.25a23.26,23.26,0,0,0-2.57-4.47,18.76,18.76,0,0,0-2.15-2.3l-.33.35c-.6.59-1.2,1.22-1.82,1.82l-.4.4c-.48.48-1,1-1.43,1.48A1.25,1.25,0,0,0,.08,16l0,.17,0,.17a1.18,1.18,0,0,0,.07.43Z"/><path class="cls-1" d="M7.28,23.1c-.2-.1-.4-.17-.6-.28A37.18,37.18,0,0,0,2.73,21.4C1.85,21.15,1,20.9.1,20.7v2.75c0,2,0,3.95,0,5.95l.88-.67A69.05,69.05,0,0,0,7.28,23.1Z"/><path class="cls-1" d="M9.65,33.57c.08-.27.18-.55.25-.82a28.11,28.11,0,0,0,.85-3.8,20.09,20.09,0,0,0,.05-4c-.45-.27-.92-.52-1.38-.77L8.35,25.22a69.24,69.24,0,0,1-7.68,6.5c-.22.15-.42.33-.65.48,0,1,0,2.07,0,3.12,1.27-.37,2.55-.7,3.85-1A48.74,48.74,0,0,1,9.65,33.57Z"/><path class="cls-1" d="M8.83,35.9l-2.13.22A34.28,34.28,0,0,0,2.23,37c-.75.2-1.5.4-2.23.62,0,.05,0,.08,0,.13a2.13,2.13,0,0,0,.6.85l.13.12c.37.4.77.78,1.15,1.18l.25.25c.58.57,1.17,1.17,1.77,1.7s.9.82,1.35,1.25A53.5,53.5,0,0,0,8.38,37C8.53,36.67,8.68,36.3,8.83,35.9Z"/><text class="cls-2" transform="translate(60.78 37.34)">phdpool</text></svg>